<?xml version="1.0" encoding="utf-8"?>
<!-- Svg Vector Icons : http://www.onlinewebfonts.com/icon -->
<!DOCTYPE svg PUBLIC "-//W3C//DTD SVG 1.1//EN" "http://www.w3.org/Graphics/SVG/1.1/DTD/svg11.dtd">
<svg version="1.1" xmlns="http://www.w3.org/2000/svg" xmlns:xlink="http://www.w3.org/1999/xlink" x="0px" y="0px" viewBox="0 0 256 256" enable-background="new 0 0 256 256" xml:space="preserve">
<metadata> Svg Vector Icons : http://www.onlinewebfonts.com/icon </metadata>
<g><g><g><path fill="#000000" d="M147.8,26.1h-39.6c0,0-12.4,0-12.4,13.4v18.8h-74c0,0-11.8,0-11.8,12.2v41.4h85.8h10.7V107c0-3.2,2.6-5.8,5.8-5.8h31.3c3.3,0,5.8,2.6,5.8,5.8v4.9h10.7H246V70.5c0-12.2-11.8-12.2-11.8-12.2h-74V39.5C160.2,26.1,147.8,26.1,147.8,26.1z M150,58.3h-43.4V36.6H150V58.3L150,58.3z"/><path fill="#000000" d="M10,218c0,11.9,11.8,11.9,11.8,11.9h212.4c0,0,11.8,0,11.8-11.9v-95.4h-85.5h-11v15.7c0,3.2-2.6,5.8-5.8,5.8h-31.4c-3.2,0-5.8-2.6-5.8-5.8v-15.7H95.9H10V218z"/><path fill="#000000" d="M117.3 111.9h21.5v21.5h-21.5z"/></g><g></g><g></g><g></g><g></g><g></g><g></g><g></g><g></g><g></g><g></g><g></g><g></g><g></g><g></g><g></g></g></g>
</svg>